<svg width="229.4825439453125px" height="129.22503051757812px" xmlns="http://www.w3.org/2000/svg" viewBox="135.25872802734375 10.38748474121094 229.4825439453125 129.22503051757812" style="background:#596886" preserveAspectRatio="xMidYMid"><defs><filter id="editing-hover" x="-100%" y="-100%" width="300%" height="300%"><feFlood flood-color="#052b4a" result="flood"></feFlood><feComposite operator="in" in2="SourceAlpha" in="flood" result="shadow"></feComposite><feOffset dx="-4" dy="-4" in="SourceGraphic" result="offset-1"></feOffset><feOffset dx="4" dy="4" in="shadow" result="offset-2"></feOffset><feMerge><feMergeNode in="offset-2"></feMergeNode><feMergeNode in="offset-1"></feMergeNode></feMerge></filter></defs><g filter="url(#editing-hover)"><g transform="translate(174.48500180244446, 99.23500061035156)"><path d="M12.34-39.41L12.34-39.41L12.38-8.28L12.38-8.28Q12.41-6.50 12.78-5.59L12.78-5.59L12.78-5.59Q13.16-4.69 14.34-4.69L14.34-4.69L14.34-4.69Q19.91-4.69 23-11.75L23-11.75L23-11.75Q26-18.63 26-30.81L26-30.81L26-30.81Q26-37.22 24.50-40.53L24.50-40.53L24.50-40.53Q22.47-45 17.44-45L17.44-45L17.44-45Q14.22-45 13.48-44.25L13.48-44.25L13.48-44.25Q12.75-43.50 12.55-42.39L12.55-42.39L12.55-42.39Q12.34-41.28 12.34-39.41ZM3.66 0L3.66 0L3.66 0Q4.66-2.38 4.83-3.97L4.83-3.97L4.83-3.97Q5-5.56 5.13-7.38L5.13-7.38L5.13-7.38Q5.38-11.06 5.38-17.28L5.38-17.28L5.38-17.28Q5.38-24.81 5.13-31.03L5.13-31.03L4.78-39.63L4.78-39.63Q4.66-42.88 4.22-44.16L4.22-44.16L4.22-44.16Q3.53-46.19 1.97-47.81L1.97-47.81L19.13-47.81L19.13-47.81Q29.81-47.81 33.09-39.41L33.09-39.41L33.09-39.41Q34.25-36.44 34.25-32.22L34.25-32.22L34.25-32.22Q34.25-8.63 18.25-2.16L18.25-2.16L18.25-2.16Q12.84 0.03 5.53 0.03L5.53 0.03L5.53 0.03Q5.06 0.03 4.59 0.03L4.59 0.03L4.59 0.03Q4.13 0.03 3.66 0ZM65.53-16.03L65.53-16.03L65.69-28.03L65.69-28.03Q65.69-40.63 64.75-44.13L64.75-44.13L64.75-44.13Q64.31-45.81 63.70-46.59L63.70-46.59L63.70-46.59Q63.09-47.38 62.72-47.81L62.72-47.81L72.97-47.81L72.31-46.94L72.31-46.94Q70.91-44.88 70.75-42.28L70.75-42.28L70.75-42.28Q70.59-39.69 70.52-37.03L70.52-37.03L70.52-37.03Q70.44-34.38 70.38-31.75L70.38-31.75L70.38-31.75Q70.31-27.34 70.31-21.91L70.31-21.91L70.31-18.09L70.31-18.09Q70.31-8 67.06-3.63L67.06-3.63L67.06-3.63Q63.84 0.63 56.56 0.63L56.56 0.63L56.56 0.63Q42.47 0.63 42.53-17.47L42.53-17.47L42.56-40.88L42.56-40.88Q42.56-45.81 40.81-47.81L40.81-47.81L52.66-47.81L52.66-47.81Q50.81-45.59 50.81-41.50L50.81-41.50L50.81-41.50Q50.81-39.13 50.78-36.63L50.78-36.63L50.66-26.63L50.66-26.63Q50.63-24.16 50.63-21.53L50.63-21.53L50.63-21.53Q50.63-12.13 51.19-9.61L51.19-9.61L51.19-9.61Q51.75-7.09 52.56-5.69L52.56-5.69L52.56-5.69Q54.44-2.50 58.13-2.50L58.13-2.50L58.13-2.50Q63.81-2.50 65.13-10.81L65.13-10.81L65.13-10.81Q65.53-13.28 65.53-16.03ZM95.44-16.88L86-34.03L86-34.03Q85.94-30.78 85.94-26.63L85.94-26.63L85.94-26.63Q85.94-20.72 86.16-13.11L86.16-13.11L86.16-13.11Q86.38-5.50 86.50-4.45L86.50-4.45L86.50-4.45Q86.63-3.41 86.81-2.63L86.81-2.63L86.81-2.63Q87.13-1.34 87.78 0L87.78 0L79.41 0L79.41 0Q80.34-1.91 80.55-3.73L80.55-3.73L80.55-3.73Q80.75-5.56 80.88-7.38L80.88-7.38L80.88-7.38Q81.13-11.06 81.13-17.28L81.13-17.28L81.13-17.28Q81.13-24.81 80.88-31.03L80.88-31.03L80.53-39.63L80.53-39.63Q80.34-44.38 79.03-46.38L79.03-46.38L79.03-46.38Q78.50-47.13 77.72-47.81L77.72-47.81L87.44-47.81L87.44-47.81Q89.28-43.56 91.34-39.38L91.34-39.38L95.59-31.06L104.72-14.28L104.72-14.28Q104.75-16.25 104.75-18.50L104.75-18.50L104.75-23.38L104.75-23.38Q104.75-39 102.84-45.94L102.84-45.94L102.84-45.94Q102.47-47.22 102.03-47.81L102.03-47.81L111.44-47.84L111.44-47.84Q109.88-44.72 109.47-30.25L109.47-30.25L109.47-30.25Q109.41-28 109.41-25.94L109.41-25.94L109.44-23.31L109.44-10.56L109.44-10.56Q109.44-2.47 109.56 0L109.56 0L104.50 0L95.44-16.88ZM139.80-40.91L139.80-40.91L139.80-40.91Q140.41-42.22 140.73-43.50L140.73-43.50L140.73-43.50Q141.06-44.78 141.06-45.98L141.06-45.98L141.06-45.98Q141.06-47.19 140.59-47.84L140.59-47.84L150.25-47.84L150.25-47.84Q149.53-46.81 149.03-45.56L149.03-45.56L147.88-42.72L147.88-42.72Q145.03-35.84 139.59-32.38L139.59-32.38L139.59-32.38Q139.94-21.94 144.06-12.69L144.06-12.69L144.06-12.69Q147.78-4.22 152.81 0L152.81 0L142.03 0L142.03 0Q137.69-4.63 135.88-16.81L135.88-16.81L135.88-16.81Q135.19-21.28 134.72-27.31L134.72-27.31L134.72-27.31Q134.59-28.91 133.77-29.77L133.77-29.77L133.77-29.77Q132.94-30.63 131.44-30.63L131.44-30.63L131.44-30.63Q129.94-30.63 129.34-30.34L129.34-30.34L129.34-30.34Q128.75-30.06 128.44-29.50L128.44-29.50L128.44-29.50Q127.91-28.53 127.91-25L127.91-25L127.91-25Q127.91-4.66 128.91-1.31L128.91-1.31L128.91-1.31Q129.09-0.69 129.38 0L129.38 0L118.91 0L118.91 0Q119.91-2.38 120.08-3.97L120.08-3.97L120.08-3.97Q120.25-5.56 120.38-7.38L120.38-7.38L120.38-7.38Q120.63-11.06 120.63-17.28L120.63-17.28L120.63-17.28Q120.63-24.75 120.38-30.97L120.38-30.97L120.03-39.56L120.03-39.56Q119.84-44.28 118.84-46.22L118.84-46.22L118.84-46.22Q118.44-47 117.84-47.81L117.84-47.81L130.09-47.81L130.09-47.81Q128.84-46.19 128.47-44.78L128.47-44.78L128.47-44.78Q127.91-42.50 127.91-40.23L127.91-40.23L127.91-40.23Q127.91-37.97 128-36.97L128-36.97L128-36.97Q128.09-35.97 128.44-35.31L128.44-35.31L128.44-35.31Q129.16-34.06 131-34.05L131-34.05L131-34.05Q132.84-34.03 134.08-34.61L134.08-34.61L134.08-34.61Q135.31-35.19 136.38-36.16L136.38-36.16L136.38-36.16Q137.44-37.13 138.31-38.36L138.31-38.36L138.31-38.36Q139.19-39.59 139.80-40.91Z" fill="#ffd5af"></path></g></g><style>text {
  font-size: 64px;
  font-family: Arial Black;
  dominant-baseline: central;
  text-anchor: middle;
}</style></svg>